<?xml version="1.0" encoding="UTF-8"?>
<svg xmlns="http://www.w3.org/2000/svg" xmlns:xlink="http://www.w3.org/1999/xlink" width="682" height="614" viewBox="0 0 2800 2800">
<!-- <rect x="-280" y="-280" width="3360" height="3360" fill="rgb(100%, 99.021912%, 76.951599%)" fill-opacity="1"/> -->
<path fill-rule="evenodd" fill="rgb(99.609375%, 82.421875%, 26.708984%)" fill-opacity="1" d="M 1965.761719 140.460938 C 2335.300781 140.460938 2635.320312 440.480469 2635.320312 810.019531 C 2635.320312 1179.558594 2335.300781 1479.578125 1965.761719 1479.578125 C 1596.21875 1479.578125 1296.199219 1179.558594 1296.199219 810.019531 C 1296.199219 440.480469 1596.21875 140.460938 1965.761719 140.460938 "/>
<path fill-rule="evenodd" fill="rgb(0%, 0%, 0%)" fill-opacity="1" d="M 2525.179688 878.101562 C 2530.261719 847.628906 2509.679688 818.820312 2479.210938 813.738281 C 2316.710938 786.628906 1760.480469 693.859375 1597.980469 666.761719 C 1567.511719 661.679688 1538.699219 682.261719 1533.609375 712.71875 C 1521 788.359375 1495.660156 940.28125 1483.050781 1015.921875 C 1477.96875 1046.378906 1498.539062 1075.199219 1529.011719 1080.28125 C 1691.511719 1107.378906 2247.738281 1200.148438 2410.25 1227.261719 C 2440.710938 1232.339844 2469.53125 1211.761719 2474.609375 1181.289062 L 2525.179688 878.101562 "/>
<path fill-rule="evenodd" fill="rgb(100%, 100%, 100%)" fill-opacity="1" d="M 1678.371094 765.71875 C 1679.21875 760.589844 1678.011719 755.339844 1674.988281 751.109375 C 1671.96875 746.878906 1667.390625 744.019531 1662.261719 743.171875 C 1649.828125 741.089844 1633.730469 738.410156 1621.289062 736.328125 C 1616.171875 735.480469 1610.910156 736.691406 1606.679688 739.710938 C 1602.449219 742.738281 1599.601562 747.308594 1598.738281 752.441406 C 1597.101562 762.261719 1595.121094 774.171875 1593.480469 784 C 1592.621094 789.121094 1593.839844 794.378906 1596.859375 798.609375 C 1599.878906 802.839844 1604.460938 805.691406 1609.578125 806.550781 C 1622.019531 808.621094 1638.121094 811.308594 1650.550781 813.378906 C 1655.679688 814.238281 1660.941406 813.019531 1665.160156 810 C 1669.390625 806.980469 1672.25 802.398438 1673.101562 797.28125 C 1674.738281 787.449219 1676.730469 775.539062 1678.371094 765.71875 "/>
<path fill-rule="evenodd" fill="rgb(100%, 100%, 100%)" fill-opacity="1" d="M 1660.109375 875.21875 C 1660.960938 870.089844 1659.738281 864.839844 1656.71875 860.609375 C 1653.699219 856.378906 1649.128906 853.519531 1644 852.671875 C 1631.570312 850.589844 1615.46875 847.910156 1603.03125 845.828125 C 1597.898438 844.980469 1592.648438 846.191406 1588.421875 849.210938 C 1584.191406 852.238281 1581.339844 856.808594 1580.480469 861.941406 C 1578.839844 871.761719 1576.859375 883.671875 1575.21875 893.5 C 1574.359375 898.621094 1575.578125 903.878906 1578.601562 908.109375 C 1581.621094 912.339844 1586.191406 915.191406 1591.320312 916.050781 C 1603.761719 918.121094 1619.859375 920.808594 1632.289062 922.878906 C 1637.421875 923.738281 1642.671875 922.519531 1646.898438 919.5 C 1651.128906 916.480469 1653.988281 911.898438 1654.839844 906.78125 C 1656.480469 896.949219 1658.46875 885.039062 1660.109375 875.21875 "/>
<path fill-rule="evenodd" fill="rgb(100%, 100%, 100%)" fill-opacity="1" d="M 1641.839844 984.71875 C 1642.699219 979.589844 1641.480469 974.339844 1638.460938 970.109375 C 1635.441406 965.878906 1630.859375 963.019531 1625.738281 962.171875 C 1613.300781 960.089844 1597.199219 957.410156 1584.769531 955.328125 C 1579.640625 954.480469 1574.390625 955.699219 1570.160156 958.71875 C 1565.929688 961.738281 1563.070312 966.308594 1562.21875 971.441406 C 1560.578125 981.261719 1558.589844 993.171875 1556.949219 1003 C 1556.101562 1008.121094 1557.308594 1013.378906 1560.328125 1017.609375 C 1563.351562 1021.839844 1567.929688 1024.691406 1573.058594 1025.550781 C 1585.488281 1027.621094 1601.589844 1030.308594 1614.03125 1032.378906 C 1619.148438 1033.238281 1624.410156 1032.019531 1628.640625 1029 C 1632.871094 1025.980469 1635.71875 1021.398438 1636.578125 1016.28125 C 1638.21875 1006.449219 1640.199219 994.539062 1641.839844 984.71875 "/>
<path fill-rule="evenodd" fill="rgb(100%, 100%, 100%)" fill-opacity="1" d="M 1805.78125 786.96875 C 1806.628906 781.839844 1805.410156 776.589844 1802.390625 772.359375 C 1799.378906 768.128906 1794.800781 765.269531 1789.671875 764.421875 C 1777.238281 762.339844 1761.140625 759.660156 1748.699219 757.578125 C 1743.578125 756.730469 1738.320312 757.941406 1734.089844 760.960938 C 1729.859375 763.988281 1727.011719 768.558594 1726.148438 773.691406 C 1724.511719 783.511719 1722.53125 795.421875 1720.890625 805.25 C 1720.03125 810.371094 1721.25 815.628906 1724.269531 819.859375 C 1727.289062 824.089844 1731.859375 826.941406 1736.988281 827.800781 C 1749.429688 829.871094 1765.53125 832.558594 1777.960938 834.628906 C 1783.089844 835.488281 1788.339844 834.269531 1792.570312 831.25 C 1796.800781 828.230469 1799.660156 823.648438 1800.511719 818.53125 C 1802.148438 808.699219 1804.140625 796.789062 1805.78125 786.96875 "/>
<path fill-rule="evenodd" fill="rgb(100%, 100%, 100%)" fill-opacity="1" d="M 1787.511719 896.46875 C 1788.371094 891.339844 1787.148438 886.089844 1784.128906 881.859375 C 1781.109375 877.628906 1776.539062 874.769531 1771.410156 873.921875 C 1758.980469 871.839844 1742.871094 869.160156 1730.441406 867.078125 C 1725.308594 866.230469 1720.058594 867.441406 1715.828125 870.460938 C 1711.601562 873.488281 1708.738281 878.058594 1707.890625 883.191406 C 1706.25 893.011719 1704.261719 904.921875 1702.628906 914.75 C 1701.769531 919.871094 1702.988281 925.128906 1706.011719 929.359375 C 1709.03125 933.589844 1713.601562 936.441406 1718.730469 937.300781 C 1731.160156 939.371094 1747.261719 942.058594 1759.699219 944.128906 C 1764.828125 944.988281 1770.078125 943.769531 1774.308594 940.75 C 1778.539062 937.730469 1781.390625 933.148438 1782.25 928.03125 C 1783.890625 918.199219 1785.871094 906.289062 1787.511719 896.46875 "/>
<path fill-rule="evenodd" fill="rgb(100%, 100%, 100%)" fill-opacity="1" d="M 1769.25 1005.96875 C 1770.109375 1000.839844 1768.890625 995.589844 1765.871094 991.359375 C 1762.851562 987.128906 1758.269531 984.269531 1753.148438 983.421875 C 1740.710938 981.339844 1724.609375 978.660156 1712.179688 976.578125 C 1707.050781 975.730469 1701.789062 976.941406 1697.558594 979.960938 C 1693.339844 982.988281 1690.480469 987.558594 1689.628906 992.691406 C 1687.988281 1002.511719 1686 1014.421875 1684.359375 1024.25 C 1683.511719 1029.371094 1684.71875 1034.628906 1687.738281 1038.859375 C 1690.761719 1043.089844 1695.339844 1045.941406 1700.460938 1046.800781 C 1712.898438 1048.871094 1729 1051.558594 1741.441406 1053.628906 C 1746.558594 1054.488281 1751.820312 1053.269531 1756.050781 1050.25 C 1760.28125 1047.230469 1763.128906 1042.648438 1763.988281 1037.53125 C 1765.628906 1027.699219 1767.609375 1015.789062 1769.25 1005.96875 "/>
<path fill-rule="evenodd" fill="rgb(100%, 100%, 100%)" fill-opacity="1" d="M 1933.191406 808.21875 C 1934.039062 803.089844 1932.820312 797.839844 1929.800781 793.609375 C 1926.78125 789.378906 1922.210938 786.519531 1917.078125 785.671875 C 1904.648438 783.589844 1888.550781 780.910156 1876.109375 778.828125 C 1870.980469 777.980469 1865.730469 779.191406 1861.5 782.210938 C 1857.269531 785.230469 1854.421875 789.808594 1853.558594 794.941406 C 1851.921875 804.761719 1849.941406 816.671875 1848.300781 826.5 C 1847.441406 831.621094 1848.660156 836.878906 1851.679688 841.109375 C 1854.699219 845.339844 1859.269531 848.191406 1864.398438 849.050781 C 1876.839844 851.121094 1892.941406 853.808594 1905.371094 855.878906 C 1910.5 856.738281 1915.75 855.519531 1919.980469 852.5 C 1924.210938 849.480469 1927.070312 844.898438 1927.921875 839.78125 C 1929.558594 829.949219 1931.550781 818.039062 1933.191406 808.21875 "/>
<path fill-rule="evenodd" fill="rgb(100%, 100%, 100%)" fill-opacity="1" d="M 1914.921875 917.71875 C 1915.78125 912.589844 1914.558594 907.339844 1911.539062 903.109375 C 1908.519531 898.878906 1903.941406 896.019531 1898.820312 895.171875 C 1886.378906 893.089844 1870.28125 890.410156 1857.851562 888.328125 C 1852.71875 887.480469 1847.46875 888.691406 1843.238281 891.710938 C 1839.011719 894.730469 1836.148438 899.308594 1835.300781 904.441406 C 1833.660156 914.261719 1831.671875 926.171875 1830.03125 936 C 1829.179688 941.121094 1830.390625 946.378906 1833.410156 950.609375 C 1836.429688 954.839844 1841.011719 957.691406 1846.140625 958.550781 C 1858.570312 960.621094 1874.671875 963.308594 1887.109375 965.378906 C 1892.230469 966.238281 1897.488281 965.019531 1901.71875 962 C 1905.949219 958.980469 1908.800781 954.398438 1909.660156 949.28125 C 1911.300781 939.449219 1913.28125 927.539062 1914.921875 917.71875 "/>
<path fill-rule="evenodd" fill="rgb(100%, 100%, 100%)" fill-opacity="1" d="M 1896.660156 1027.21875 C 1897.511719 1022.089844 1896.300781 1016.839844 1893.28125 1012.609375 C 1890.261719 1008.378906 1885.679688 1005.519531 1880.558594 1004.671875 C 1868.121094 1002.589844 1852.019531 999.910156 1839.578125 997.828125 C 1834.460938 996.980469 1829.199219 998.191406 1824.96875 1001.210938 C 1820.738281 1004.238281 1817.890625 1008.808594 1817.03125 1013.941406 C 1815.390625 1023.761719 1813.410156 1035.671875 1811.769531 1045.5 C 1810.910156 1050.621094 1812.128906 1055.878906 1815.148438 1060.109375 C 1818.171875 1064.339844 1822.75 1067.191406 1827.871094 1068.050781 C 1840.308594 1070.121094 1856.410156 1072.808594 1868.839844 1074.878906 C 1873.96875 1075.738281 1879.230469 1074.519531 1883.460938 1071.5 C 1887.679688 1068.480469 1890.539062 1063.898438 1891.390625 1058.78125 C 1893.03125 1048.949219 1895.019531 1037.039062 1896.660156 1027.21875 "/>
<path fill-rule="evenodd" fill="rgb(100%, 100%, 100%)" fill-opacity="1" d="M 2060.589844 829.46875 C 2061.449219 824.339844 2060.230469 819.089844 2057.210938 814.859375 C 2054.191406 810.628906 2049.621094 807.769531 2044.488281 806.921875 C 2032.058594 804.839844 2015.949219 802.160156 2003.519531 800.078125 C 1998.390625 799.230469 1993.140625 800.441406 1988.910156 803.460938 C 1984.679688 806.480469 1981.820312 811.058594 1980.96875 816.191406 C 1979.328125 826.011719 1977.339844 837.921875 1975.710938 847.75 C 1974.851562 852.871094 1976.070312 858.128906 1979.089844 862.359375 C 1982.109375 866.589844 1986.679688 869.441406 1991.808594 870.300781 C 2004.238281 872.371094 2020.339844 875.058594 2032.78125 877.128906 C 2037.910156 877.980469 2043.160156 876.769531 2047.390625 873.75 C 2051.621094 870.730469 2054.480469 866.148438 2055.328125 861.03125 C 2056.96875 851.199219 2058.949219 839.289062 2060.589844 829.46875 "/>
<path fill-rule="evenodd" fill="rgb(100%, 100%, 100%)" fill-opacity="1" d="M 2042.328125 938.96875 C 2043.179688 933.839844 2041.96875 928.589844 2038.949219 924.359375 C 2035.929688 920.128906 2031.351562 917.269531 2026.230469 916.421875 C 2013.789062 914.339844 1997.691406 911.660156 1985.25 909.578125 C 1980.128906 908.730469 1974.871094 909.941406 1970.640625 912.960938 C 1966.421875 915.980469 1963.558594 920.558594 1962.710938 925.691406 C 1961.070312 935.511719 1959.078125 947.421875 1957.441406 957.25 C 1956.589844 962.371094 1957.800781 967.628906 1960.820312 971.859375 C 1963.839844 976.089844 1968.421875 978.941406 1973.539062 979.800781 C 1985.980469 981.871094 2002.078125 984.558594 2014.519531 986.628906 C 2019.640625 987.488281 2024.898438 986.269531 2029.128906 983.25 C 2033.359375 980.230469 2036.210938 975.648438 2037.070312 970.53125 C 2038.710938 960.699219 2040.691406 948.789062 2042.328125 938.96875 "/>
<path fill-rule="evenodd" fill="rgb(100%, 100%, 100%)" fill-opacity="1" d="M 2188 850.71875 C 2188.859375 845.589844 2187.640625 840.328125 2184.621094 836.109375 C 2181.601562 831.878906 2177.019531 829.019531 2171.898438 828.171875 C 2159.460938 826.089844 2143.359375 823.410156 2130.929688 821.328125 C 2125.800781 820.480469 2120.550781 821.691406 2116.320312 824.710938 C 2112.089844 827.730469 2109.230469 832.308594 2108.378906 837.441406 C 2106.738281 847.261719 2104.75 859.171875 2103.109375 869 C 2102.261719 874.121094 2103.480469 879.378906 2106.488281 883.609375 C 2109.511719 887.839844 2114.089844 890.691406 2119.21875 891.550781 C 2131.648438 893.621094 2147.75 896.308594 2160.191406 898.378906 C 2165.308594 899.230469 2170.570312 898.019531 2174.800781 895 C 2179.03125 891.980469 2181.878906 887.398438 2182.738281 882.28125 C 2184.378906 872.449219 2186.359375 860.539062 2188 850.71875 "/>
<path fill-rule="evenodd" fill="rgb(100%, 100%, 100%)" fill-opacity="1" d="M 2169.738281 960.21875 C 2170.589844 955.089844 2169.378906 949.839844 2166.359375 945.609375 C 2163.339844 941.378906 2158.761719 938.519531 2153.640625 937.671875 C 2141.199219 935.589844 2125.101562 932.910156 2112.660156 930.828125 C 2107.539062 929.980469 2102.28125 931.191406 2098.050781 934.210938 C 2093.828125 937.230469 2090.96875 941.808594 2090.109375 946.941406 C 2088.480469 956.761719 2086.488281 968.671875 2084.851562 978.5 C 2083.988281 983.621094 2085.210938 988.878906 2088.230469 993.109375 C 2091.25 997.339844 2095.828125 1000.191406 2100.949219 1001.050781 C 2113.390625 1003.121094 2129.488281 1005.808594 2141.929688 1007.878906 C 2147.050781 1008.730469 2152.308594 1007.519531 2156.539062 1004.5 C 2160.761719 1001.480469 2163.621094 996.898438 2164.480469 991.78125 C 2166.109375 981.949219 2168.101562 970.039062 2169.738281 960.21875 "/>
<path fill-rule="evenodd" fill="rgb(100%, 100%, 100%)" fill-opacity="1" d="M 2151.480469 1069.71875 C 2152.328125 1064.589844 2151.121094 1059.339844 2148.101562 1055.109375 C 2145.078125 1050.878906 2140.5 1048.019531 2135.371094 1047.171875 C 2122.941406 1045.089844 2106.839844 1042.410156 2094.398438 1040.328125 C 2089.28125 1039.480469 2084.019531 1040.691406 2079.789062 1043.710938 C 2075.558594 1046.730469 2072.710938 1051.308594 2071.851562 1056.441406 C 2070.210938 1066.261719 2068.230469 1078.171875 2066.589844 1088 C 2065.730469 1093.121094 2066.949219 1098.378906 2069.96875 1102.609375 C 2072.988281 1106.839844 2077.570312 1109.691406 2082.691406 1110.550781 C 2095.128906 1112.621094 2111.230469 1115.308594 2123.660156 1117.378906 C 2128.789062 1118.238281 2134.039062 1117.019531 2138.269531 1114 C 2142.5 1110.980469 2145.359375 1106.398438 2146.210938 1101.28125 C 2147.851562 1091.449219 2149.839844 1079.539062 2151.480469 1069.71875 "/>
<path fill-rule="evenodd" fill="rgb(100%, 100%, 100%)" fill-opacity="1" d="M 2315.410156 871.960938 C 2316.261719 866.839844 2315.050781 861.578125 2312.03125 857.359375 C 2309.011719 853.128906 2304.429688 850.269531 2299.308594 849.421875 C 2286.871094 847.339844 2270.769531 844.660156 2258.328125 842.578125 C 2253.210938 841.730469 2247.949219 842.941406 2243.730469 845.960938 C 2239.5 848.980469 2236.640625 853.558594 2235.789062 858.691406 C 2234.148438 868.511719 2232.160156 880.421875 2230.519531 890.25 C 2229.671875 895.371094 2230.878906 900.628906 2233.898438 904.859375 C 2236.921875 909.078125 2241.5 911.941406 2246.628906 912.789062 C 2259.058594 914.871094 2275.160156 917.558594 2287.601562 919.628906 C 2292.71875 920.480469 2297.980469 919.269531 2302.210938 916.25 C 2306.441406 913.230469 2309.289062 908.648438 2310.148438 903.53125 C 2311.789062 893.699219 2313.769531 881.789062 2315.410156 871.96875 "/>
<path fill-rule="evenodd" fill="rgb(100%, 100%, 100%)" fill-opacity="1" d="M 2297.148438 981.460938 C 2298 976.339844 2296.789062 971.078125 2293.769531 966.859375 C 2290.75 962.628906 2286.171875 959.769531 2281.039062 958.921875 C 2268.609375 956.839844 2252.511719 954.160156 2240.070312 952.078125 C 2234.949219 951.230469 2229.691406 952.441406 2225.460938 955.460938 C 2221.230469 958.480469 2218.378906 963.058594 2217.519531 968.191406 C 2215.878906 978.011719 2213.898438 989.921875 2212.261719 999.75 C 2211.398438 1004.871094 2212.621094 1010.128906 2215.640625 1014.359375 C 2218.660156 1018.589844 2223.238281 1021.441406 2228.359375 1022.300781 C 2240.800781 1024.371094 2256.898438 1027.058594 2269.328125 1029.128906 C 2274.460938 1029.980469 2279.71875 1028.769531 2283.941406 1025.75 C 2288.171875 1022.730469 2291.03125 1018.148438 2291.878906 1013.03125 C 2293.519531 1003.199219 2295.511719 991.289062 2297.148438 981.460938 "/>
<path fill-rule="evenodd" fill="rgb(100%, 100%, 100%)" fill-opacity="1" d="M 2278.890625 1090.96875 C 2279.738281 1085.839844 2278.519531 1080.589844 2275.5 1076.359375 C 2272.480469 1072.128906 2267.910156 1069.269531 2262.78125 1068.421875 C 2250.351562 1066.339844 2234.238281 1063.660156 2221.808594 1061.578125 C 2216.679688 1060.730469 2211.429688 1061.941406 2207.199219 1064.960938 C 2202.96875 1067.980469 2200.109375 1072.558594 2199.261719 1077.691406 C 2197.621094 1087.511719 2195.640625 1099.421875 2194 1109.25 C 2193.140625 1114.371094 2194.359375 1119.628906 2197.378906 1123.859375 C 2200.398438 1128.089844 2204.96875 1130.941406 2210.101562 1131.800781 C 2222.539062 1133.871094 2238.640625 1136.558594 2251.070312 1138.628906 C 2256.199219 1139.480469 2261.449219 1138.269531 2265.679688 1135.25 C 2269.910156 1132.230469 2272.769531 1127.648438 2273.621094 1122.53125 C 2275.261719 1112.699219 2277.25 1100.789062 2278.890625 1090.96875 "/>
<path fill-rule="evenodd" fill="rgb(100%, 100%, 100%)" fill-opacity="1" d="M 2442.820312 893.210938 C 2443.671875 888.089844 2442.460938 882.828125 2439.441406 878.609375 C 2436.421875 874.378906 2431.839844 871.519531 2426.71875 870.671875 C 2414.28125 868.589844 2398.179688 865.910156 2385.738281 863.828125 C 2380.621094 862.980469 2375.359375 864.191406 2371.128906 867.210938 C 2366.910156 870.230469 2364.050781 874.808594 2363.191406 879.941406 C 2361.558594 889.761719 2359.570312 901.671875 2357.929688 911.488281 C 2357.078125 916.621094 2358.289062 921.878906 2361.308594 926.109375 C 2364.328125 930.328125 2368.910156 933.191406 2374.03125 934.039062 C 2386.46875 936.121094 2402.570312 938.800781 2415.011719 940.878906 C 2420.128906 941.730469 2425.390625 940.519531 2429.621094 937.5 C 2433.839844 934.480469 2436.699219 929.898438 2437.558594 924.769531 C 2439.191406 914.949219 2441.179688 903.039062 2442.820312 893.210938 "/>
<path fill-rule="evenodd" fill="rgb(100%, 100%, 100%)" fill-opacity="1" d="M 2424.558594 1002.710938 C 2425.410156 997.589844 2424.191406 992.328125 2421.179688 988.109375 C 2418.148438 983.878906 2413.578125 981.019531 2408.449219 980.171875 C 2396.019531 978.089844 2379.921875 975.410156 2367.480469 973.328125 C 2362.351562 972.480469 2357.101562 973.691406 2352.871094 976.710938 C 2348.640625 979.730469 2345.789062 984.308594 2344.929688 989.441406 C 2343.289062 999.261719 2341.308594 1011.171875 2339.671875 1020.988281 C 2338.808594 1026.121094 2340.03125 1031.378906 2343.050781 1035.609375 C 2346.070312 1039.828125 2350.640625 1042.691406 2355.769531 1043.539062 C 2368.210938 1045.621094 2384.308594 1048.308594 2396.738281 1050.378906 C 2401.871094 1051.230469 2407.121094 1050.019531 2411.351562 1047 C 2415.578125 1043.980469 2418.441406 1039.398438 2419.289062 1034.28125 C 2420.929688 1024.449219 2422.921875 1012.539062 2424.558594 1002.710938 "/>
<path fill-rule="evenodd" fill="rgb(100%, 100%, 100%)" fill-opacity="1" d="M 2406.289062 1112.210938 C 2407.148438 1107.089844 2405.929688 1101.828125 2402.910156 1097.609375 C 2399.890625 1093.378906 2395.320312 1090.519531 2390.191406 1089.671875 C 2377.761719 1087.589844 2361.648438 1084.910156 2349.21875 1082.828125 C 2344.089844 1081.980469 2338.839844 1083.191406 2334.609375 1086.210938 C 2330.378906 1089.230469 2327.519531 1093.808594 2326.671875 1098.941406 C 2325.03125 1108.761719 2323.039062 1120.671875 2321.410156 1130.5 C 2320.550781 1135.621094 2321.769531 1140.878906 2324.789062 1145.109375 C 2327.808594 1149.339844 2332.378906 1152.191406 2337.511719 1153.039062 C 2349.941406 1155.121094 2366.039062 1157.808594 2378.480469 1159.878906 C 2383.609375 1160.730469 2388.859375 1159.519531 2393.089844 1156.5 C 2397.320312 1153.480469 2400.179688 1148.898438 2401.03125 1143.78125 C 2402.671875 1133.949219 2404.660156 1122.039062 2406.289062 1112.210938 "/>
<path fill-rule="evenodd" fill="rgb(100%, 100%, 100%)" fill-opacity="1" d="M 1979.050781 981.449219 C 1984.609375 973.351562 1991.628906 966.320312 2000.429688 960.808594 C 2000.429688 960.808594 2032.859375 941.429688 2049.410156 962.929688 C 2065.960938 984.429688 1988.058594 1182.988281 2080.789062 1213.710938 C 2080.789062 1213.710938 2124.949219 1221.121094 2101.929688 1113.449219 C 2078.910156 1005.78125 2169.070312 1068.871094 2181.441406 1134.929688 C 2193.808594 1201 2207.550781 1232.421875 2168.300781 1311.03125 C 2129.058594 1389.640625 2128.238281 1465.179688 2128.238281 1465.179688 L 1978.640625 1420.011719 C 1978.640625 1420.011719 1852.910156 1313.160156 1828.390625 1230.308594 C 1807.800781 1160.75 1836.878906 1137.238281 1846.75 1131.480469 C 1842.230469 1116.519531 1839.71875 1101.839844 1840.820312 1088.980469 C 1844.671875 1044.128906 1879.910156 1029.460938 1893.558594 1025.429688 C 1895.648438 1016.089844 1898.839844 1006.941406 1903.378906 998.171875 C 1928.800781 949.089844 1966.789062 969.648438 1979.050781 981.449219 "/>
<path fill-rule="evenodd" fill="rgb(0%, 0%, 0%)" fill-opacity="1" d="M 1977.261719 966.960938 C 1966.738281 960.179688 1951.378906 954.28125 1935.398438 957.511719 C 1921.371094 960.339844 1906.308594 969.929688 1894.160156 993.390625 C 1890.519531 1000.421875 1887.679688 1007.671875 1885.53125 1015.070312 C 1873.199219 1018.738281 1835.089844 1034.339844 1830.480469 1088.101562 C 1829.351562 1101.25 1831.648438 1116.210938 1836 1131.511719 L 1818.121094 1147.339844 C 1810.308594 1161.78125 1804.929688 1187.640625 1818.429688 1233.25 C 1843.011719 1316.308594 1966.46875 1423.230469 1971.738281 1427.769531 C 1972.308594 1428.28125 1972.941406 1428.71875 1973.621094 1429.101562 L 1973.640625 1429.109375 L 1973.671875 1429.121094 L 1973.691406 1429.140625 L 1973.710938 1429.148438 C 1974.378906 1429.511719 1975.078125 1429.789062 1975.789062 1429.988281 L 2125.238281 1475.121094 C 2128.371094 1476.058594 2131.761719 1475.480469 2134.390625 1473.550781 C 2137.019531 1471.609375 2138.589844 1468.550781 2138.628906 1465.289062 C 2138.628906 1465.289062 2139.488281 1391.980469 2177.589844 1315.671875 C 2218.300781 1234.121094 2204.480469 1201.550781 2191.648438 1133.019531 C 2184.988281 1097.46875 2157.601562 1062.851562 2134.589844 1050.550781 C 2121.339844 1043.460938 2109.058594 1043.460938 2100.46875 1049.75 C 2095.5 1053.398438 2091.320312 1059.398438 2089.25 1068.660156 C 2086.960938 1078.921875 2087.199219 1094.21875 2091.78125 1115.621094 C 2096.199219 1136.289062 2098.078125 1152.539062 2098.191406 1165.308594 C 2098.5 1199.109375 2086.929688 1203.269531 2082.839844 1203.429688 C 2064.019531 1196.699219 2054.121094 1181.269531 2049.148438 1162 C 2043.429688 1139.800781 2044.089844 1112.71875 2046.859375 1085.929688 C 2050.941406 1046.550781 2059.679688 1007.738281 2061.71875 984.300781 C 2062.328125 977.289062 2062.339844 971.460938 2061.699219 967.109375 C 2061.011719 962.480469 2059.488281 959 2057.640625 956.601562 C 2048.550781 944.789062 2036.089844 941.679688 2024.269531 942.539062 C 2008.960938 943.648438 1995.101562 951.890625 1995.101562 951.890625 C 1995.039062 951.929688 1994.980469 951.96875 1994.910156 952.011719 C 1988.148438 956.25 1982.289062 961.289062 1977.261719 966.960938 Z M 1983.730469 1410.699219 L 2118.628906 1451.429688 C 2120.769531 1425.648438 2128.808594 1366.898438 2159.011719 1306.390625 C 2196.789062 1230.71875 2183.148438 1200.441406 2171.238281 1136.839844 C 2166.511719 1111.621094 2149.300781 1086.890625 2132.488281 1073.921875 C 2127.609375 1070.148438 2122.839844 1067.390625 2118.441406 1066.269531 C 2116.269531 1065.71875 2114.269531 1065.378906 2112.75 1066.488281 C 2110.359375 1068.25 2109.460938 1071.890625 2108.890625 1077.089844 C 2107.980469 1085.328125 2108.929688 1096.550781 2112.078125 1111.28125 C 2138.460938 1234.648438 2079.078125 1223.941406 2079.078125 1223.941406 C 2078.550781 1223.859375 2078.039062 1223.730469 2077.53125 1223.558594 C 2050.769531 1214.699219 2035.960938 1194.039062 2029.039062 1167.179688 C 2022.769531 1142.839844 2023.171875 1113.171875 2026.210938 1083.789062 C 2030.269531 1044.539062 2039 1005.859375 2041.03125 982.488281 C 2041.410156 978.171875 2041.558594 974.460938 2041.308594 971.480469 C 2041.230469 970.570312 2040.960938 969.320312 2040.859375 968.871094 C 2035.441406 962.230469 2027.410156 962.578125 2020.871094 963.960938 C 2012.980469 965.628906 2006.589844 969.230469 2005.78125 969.699219 C 1998.570312 974.25 1992.761719 979.960938 1988.101562 986.511719 C 1987.789062 987.058594 1987.429688 987.601562 1987.011719 988.101562 C 1975.789062 1004.839844 1971.679688 1026.679688 1970.851562 1048.511719 C 1968.929688 1098.941406 1985.378906 1150.191406 1985.378906 1150.191406 C 1987.128906 1155.640625 1984.121094 1161.488281 1978.660156 1163.238281 C 1973.210938 1164.988281 1967.359375 1161.980469 1965.609375 1156.53125 C 1965.609375 1156.53125 1948.050781 1101.691406 1950.101562 1047.71875 C 1950.960938 1025.011719 1955.390625 1002.578125 1965.46875 983.921875 C 1958.820312 979.609375 1949.390625 975.871094 1939.511719 977.859375 C 1930.070312 979.769531 1920.78125 987.148438 1912.601562 1002.941406 C 1897.238281 1032.601562 1898.851562 1067.050781 1905.859375 1097.691406 C 1916.769531 1145.328125 1941.140625 1184.128906 1941.140625 1184.128906 C 1944.191406 1188.980469 1942.730469 1195.398438 1937.878906 1198.449219 C 1933.019531 1201.5 1926.609375 1200.03125 1923.558594 1195.179688 C 1923.558594 1195.179688 1897.339844 1153.511719 1885.621094 1102.320312 C 1881.019531 1082.238281 1878.699219 1060.761719 1880.820312 1039.671875 C 1869.320312 1046.261719 1853.679688 1060.511719 1851.171875 1089.871094 C 1849.378906 1110.679688 1858.101562 1136.46875 1868.769531 1160.039062 C 1885.519531 1197.039062 1907.71875 1228.601562 1907.71875 1228.601562 C 1911.011719 1233.28125 1909.890625 1239.761719 1905.199219 1243.058594 C 1900.511719 1246.359375 1894.03125 1245.230469 1890.730469 1240.539062 C 1890.730469 1240.539062 1867.429688 1207.429688 1849.859375 1168.609375 C 1847.070312 1162.460938 1844.441406 1156.171875 1842.070312 1149.828125 C 1834.589844 1156.699219 1823.199219 1176.179688 1838.339844 1227.359375 C 1860.640625 1302.710938 1969.101562 1398.089844 1983.730469 1410.699219 "/>
<path fill-rule="evenodd" fill="rgb(0%, 0%, 0%)" fill-opacity="1" d="M 1927.871094 1502.609375 C 1927.871094 1502.609375 1913.808594 1406.039062 1958.78125 1400.03125 C 2003.738281 1394.019531 2130.46875 1417.089844 2156.289062 1431.789062 C 2182.109375 1446.488281 2169.078125 1540.96875 2155.921875 1570.761719 C 2142.761719 1600.539062 1933.351562 1523.628906 1927.871094 1502.609375 "/>
<path fill-rule="evenodd" fill="rgb(0%, 0%, 0%)" fill-opacity="1" d="M 2354.03125 2213.457031 C 2329.378906 2169.578125 2292.648438 2154.035156 2263.761719 2157.664062 C 2242.539062 2160.332031 2224.550781 2172.839844 2215.539062 2192.5 C 2205.878906 2213.566406 2215.578125 2234.722656 2236.980469 2248.59375 C 2262.839844 2265.367188 2306.21875 2270.878906 2342.570312 2249.851562 C 2343.980469 2249.035156 2345.390625 2248.179688 2346.78125 2247.28125 C 2353.109375 2265.136719 2357.648438 2286.722656 2359.578125 2312.382812 C 2365.089844 2385.734375 2319.621094 2427.9375 2273.191406 2452.054688 C 2225.269531 2476.949219 2175.941406 2482.941406 2175.941406 2482.941406 C 2170.25 2483.632812 2166.191406 2488.808594 2166.878906 2494.496094 C 2167.570312 2500.1875 2172.75 2504.246094 2178.429688 2503.558594 C 2178.429688 2503.558594 2231.371094 2497.183594 2282.761719 2470.480469 C 2335.660156 2443.007812 2386.558594 2394.386719 2380.28125 2310.828125 C 2377.96875 2279.984375 2372 2254.460938 2363.660156 2233.660156 C 2378.308594 2219.070312 2390.519531 2198.429688 2397.75 2170.1875 C 2412.429688 2112.855469 2402.828125 2065.59375 2375.160156 2029.390625 C 2334.75 1976.523438 2254.261719 1947.0625 2150.78125 1946.605469 C 2145.050781 1946.582031 2140.378906 1951.214844 2140.351562 1956.941406 C 2140.328125 1962.671875 2144.960938 1967.347656 2150.691406 1967.371094 C 2246.289062 1967.792969 2321.328125 1993.160156 2358.660156 2042 C 2382.820312 2073.605469 2390.449219 2114.984375 2377.640625 2165.035156 C 2372.359375 2185.65625 2364.109375 2201.570312 2354.03125 2213.457031 Z M 2338.46875 2227.832031 C 2323.21875 2197.949219 2302.070312 2182.480469 2281.519531 2178.746094 C 2261.328125 2175.078125 2242.429688 2183.65625 2234.410156 2201.152344 C 2231.140625 2208.300781 2232.78125 2215.316406 2237.300781 2221.3125 C 2243.078125 2228.96875 2252.980469 2235.0625 2264.738281 2238.816406 C 2286.621094 2245.808594 2315.011719 2244.5 2338.46875 2227.832031 "/>
<path fill-rule="evenodd" fill="rgb(0%, 0%, 0%)" fill-opacity="1" d="M 1445.589844 585.558594 C 1432.089844 585.730469 1417.050781 590.308594 1400.859375 601.191406 C 1380 615.210938 1356.730469 640.210938 1332.191406 680.480469 C 1194.140625 907.070312 1359.628906 1094.019531 1474.519531 1175.359375 C 1521.480469 1208.621094 1549.460938 1262.109375 1559.101562 1311.171875 C 1517.960938 1288.160156 1476.621094 1291.441406 1446.5 1310.039062 C 1429.671875 1320.429688 1420 1333.78125 1416.171875 1347.738281 C 1412.238281 1362.058594 1414.390625 1377.230469 1422.078125 1391.199219 C 1436.058594 1416.578125 1469.21875 1438.410156 1516.128906 1440.621094 C 1555.570312 1442.480469 1579.289062 1410.089844 1583.109375 1362.898438 C 1583.289062 1360.660156 1583.429688 1358.398438 1583.519531 1356.101562 C 1608.28125 1381.75 1631.699219 1420.628906 1650.460938 1475.699219 C 1671.191406 1536.539062 1665.558594 1576.589844 1650.410156 1602.75 C 1628.589844 1640.398438 1587.949219 1648.128906 1587.949219 1648.128906 C 1582.320312 1649.179688 1578.601562 1654.621094 1579.660156 1660.25 C 1580.71875 1665.878906 1586.148438 1669.589844 1591.78125 1668.53125 C 1591.789062 1668.53125 1641.671875 1659.25 1668.378906 1613.160156 C 1685.570312 1583.480469 1693.628906 1538.039062 1670.109375 1469 C 1646.429688 1399.46875 1615.199219 1354.121094 1582.441406 1327.210938 C 1576.050781 1268.460938 1544.441406 1199.429688 1486.511719 1158.410156 C 1377.929688 1081.53125 1219.449219 905.441406 1349.921875 691.289062 C 1372.378906 654.429688 1393.351562 631.261719 1412.441406 618.421875 C 1417.820312 614.808594 1423 612.058594 1427.96875 610.109375 C 1417.921875 627.269531 1411.480469 645.460938 1408.859375 662.449219 C 1404.710938 689.28125 1410.28125 713.128906 1424.480469 726.929688 C 1434.550781 736.71875 1449.03125 742.101562 1468.390625 739.808594 C 1503.460938 735.679688 1519.320312 706.210938 1518.660156 673.148438 C 1517.980469 639.378906 1499.371094 602.929688 1469.738281 590.289062 C 1494.621094 566.640625 1530.199219 551.359375 1575.089844 557.800781 C 1723.710938 579.109375 1765.078125 696.171875 1772.960938 712.53125 C 1775.449219 717.699219 1781.660156 719.871094 1786.820312 717.378906 C 1791.988281 714.898438 1794.160156 708.691406 1791.671875 703.53125 C 1783.179688 685.890625 1738.210938 560.210938 1578.039062 537.238281 C 1519.480469 528.851562 1474.578125 552.269531 1445.589844 585.558594 Z M 1591.78125 1668.539062 Z M 1562.558594 1337.648438 C 1524.828125 1310 1486.128906 1309.96875 1457.410156 1327.710938 C 1443.691406 1336.171875 1436.351562 1347.078125 1435.191406 1358.660156 C 1434.019531 1370.28125 1438.96875 1382.191406 1448.429688 1392.320312 C 1462.539062 1407.429688 1486.390625 1418.429688 1517.109375 1419.878906 C 1545.601562 1421.21875 1559.648438 1395.308594 1562.410156 1361.21875 C 1563.019531 1353.730469 1563.070312 1345.820312 1562.558594 1337.648438 Z M 1454.710938 607.199219 C 1440.929688 625.558594 1432.328125 646.480469 1429.378906 665.621094 C 1426.421875 684.789062 1428.808594 702.179688 1438.949219 712.039062 C 1445.101562 718.019531 1454.128906 720.589844 1465.960938 719.191406 C 1489.351562 716.429688 1498.339844 695.621094 1497.898438 673.570312 C 1497.339844 645.839844 1482.488281 614.679688 1456.710938 607.679688 C 1456.050781 607.511719 1455.378906 607.339844 1454.710938 607.199219 "/>
<path fill-rule="evenodd" fill="rgb(0%, 0%, 0%)" fill-opacity="1" d="M 1290.011719 236.460938 C 1286.53125 202.230469 1255.96875 177.289062 1221.738281 180.769531 C 1036.410156 199.558594 406.03125 263.5 220.695312 282.300781 C 186.46875 285.769531 161.535156 316.328125 165.007812 350.558594 C 175.007812 449.179688 196.722656 663.238281 206.722656 761.859375 C 210.195312 796.089844 240.757812 821.019531 274.984375 817.550781 C 460.320312 798.75 1090.699219 734.820312 1276.03125 716.019531 C 1310.261719 712.550781 1335.191406 681.980469 1331.71875 647.761719 C 1321.71875 549.140625 1300.011719 335.070312 1290.011719 236.460938 "/>
<path fill-rule="evenodd" fill="rgb(100%, 100%, 100%)" fill-opacity="1" d="M 1269.351562 238.550781 L 1274.210938 286.441406 C 1169.128906 297.101562 295.601562 385.699219 190.523438 396.359375 L 185.664062 348.46875 C 183.351562 325.648438 199.972656 305.269531 222.792969 302.960938 C 408.125 284.160156 1038.511719 220.21875 1223.839844 201.421875 C 1246.660156 199.109375 1267.03125 215.730469 1269.351562 238.550781 "/>
<path fill-rule="evenodd" fill="rgb(100%, 100%, 100%)" fill-opacity="1" d="M 492.613281 459.261719 C 491.992188 453.140625 488.964844 447.511719 484.191406 443.609375 C 479.417969 439.71875 473.296875 437.878906 467.167969 438.5 C 420.035156 443.28125 313.273438 454.109375 266.140625 458.890625 C 260.011719 459.519531 254.382812 462.550781 250.488281 467.320312 C 246.597656 472.089844 244.757812 478.210938 245.382812 484.339844 C 250.921875 538.96875 264.785156 675.640625 270.324219 730.269531 C 270.945312 736.398438 273.976562 742.03125 278.746094 745.921875 C 283.519531 749.808594 289.644531 751.648438 295.769531 751.03125 C 342.902344 746.25 449.667969 735.421875 496.800781 730.640625 C 502.925781 730.019531 508.554688 726.988281 512.449219 722.21875 C 516.34375 717.449219 518.179688 711.320312 517.558594 705.199219 C 512.015625 650.558594 498.15625 513.898438 492.613281 459.261719 "/>
<path fill-rule="evenodd" fill="rgb(100%, 100%, 100%)" fill-opacity="1" d="M 1240.710938 374.460938 C 1240.050781 367.941406 1236.828125 361.941406 1231.738281 357.800781 C 1226.660156 353.648438 1220.148438 351.699219 1213.621094 352.359375 C 1172.769531 356.5 1055.671875 368.378906 1014.820312 372.519531 C 1008.300781 373.179688 1002.308594 376.410156 998.160156 381.488281 C 994.015625 386.570312 992.058594 393.089844 992.722656 399.609375 C 996.226562 434.160156 1005.140625 522.039062 1008.640625 556.589844 C 1009.300781 563.109375 1012.53125 569.109375 1017.609375 573.25 C 1022.691406 577.390625 1029.210938 579.351562 1035.730469 578.691406 C 1076.578125 574.550781 1193.679688 562.671875 1234.53125 558.53125 C 1241.058594 557.859375 1247.050781 554.640625 1251.191406 549.558594 C 1255.339844 544.480469 1257.289062 537.960938 1256.628906 531.441406 L 1240.710938 374.460938 "/>
<path fill-rule="evenodd" fill="rgb(100%, 100%, 100%)" fill-opacity="1" d="M 938.800781 403.421875 C 938.09375 396.449219 931.871094 391.371094 924.90625 392.078125 C 866.0625 398.050781 619.003906 423.101562 560.160156 429.070312 C 553.195312 429.78125 548.117188 436 548.824219 442.96875 C 549.90625 453.640625 551.449219 468.851562 552.53125 479.519531 C 553.238281 486.488281 559.460938 491.570312 566.429688 490.859375 C 625.269531 484.890625 872.332031 459.839844 931.171875 453.871094 C 938.140625 453.160156 943.214844 446.941406 942.511719 439.96875 C 941.425781 429.300781 939.882812 414.089844 938.800781 403.421875 "/>
<path fill-rule="evenodd" fill="rgb(100%, 100%, 100%)" fill-opacity="1" d="M 950.484375 518.589844 C 949.777344 511.621094 943.554688 506.539062 936.585938 507.25 C 877.746094 513.21875 630.683594 538.28125 571.84375 544.25 C 564.875 544.949219 559.800781 551.171875 560.507812 558.140625 C 561.589844 568.808594 563.132812 584.03125 564.214844 594.699219 C 564.921875 601.671875 571.144531 606.738281 578.109375 606.039062 C 636.953125 600.070312 884.011719 575.011719 942.851562 569.039062 C 949.820312 568.339844 954.898438 562.109375 954.191406 555.140625 C 953.109375 544.46875 951.566406 529.261719 950.484375 518.589844 "/>
<path fill-rule="evenodd" fill="rgb(100%, 100%, 100%)" fill-opacity="1" d="M 1253.578125 604.210938 C 1252.871094 597.238281 1246.648438 592.160156 1239.679688 592.871094 C 1154.839844 601.46875 668.363281 650.820312 583.527344 659.421875 C 576.558594 660.128906 571.480469 666.351562 572.1875 673.320312 C 573.269531 683.988281 574.8125 699.199219 575.894531 709.871094 C 576.601562 716.839844 582.824219 721.921875 589.792969 721.210938 C 674.628906 712.609375 1161.109375 663.261719 1245.949219 654.660156 C 1252.921875 653.949219 1257.988281 647.730469 1257.289062 640.761719 C 1256.199219 630.089844 1254.660156 614.878906 1253.578125 604.210938 "/>
<path fill-rule="evenodd" fill="rgb(0%, 0%, 0%)" fill-opacity="1" d="M 379.859375 580.21875 L 277.53125 481.511719 C 273.816406 477.929688 267.890625 478.039062 264.308594 481.75 C 260.722656 485.46875 260.828125 491.390625 264.546875 494.980469 L 369 595.730469 L 286.742188 713.261719 C 283.78125 717.480469 284.8125 723.320312 289.039062 726.28125 C 293.269531 729.238281 299.105469 728.210938 302.066406 723.980469 L 382.628906 608.878906 L 485.410156 708.019531 C 489.121094 711.601562 495.050781 711.5 498.632812 707.78125 C 502.214844 704.070312 502.109375 698.140625 498.394531 694.558594 L 393.488281 593.371094 L 475.429688 476.300781 C 478.390625 472.070312 477.359375 466.238281 473.132812 463.28125 C 468.902344 460.320312 463.066406 461.351562 460.105469 465.570312 L 379.859375 580.21875 "/>
<path fill-rule="evenodd" fill="rgb(0%, 0%, 0%)" fill-opacity="1" d="M 1123.339844 453.601562 L 1032.988281 393.96875 C 1028.738281 391.171875 1023.019531 392.339844 1020.21875 396.578125 C 1017.421875 400.828125 1018.589844 406.550781 1022.828125 409.351562 L 1109.890625 466.808594 L 1036.078125 539.261719 C 1032.449219 542.828125 1032.390625 548.671875 1035.960938 552.300781 C 1039.519531 555.929688 1045.359375 555.980469 1048.988281 552.421875 L 1125.621094 477.191406 L 1216.371094 537.078125 C 1220.609375 539.878906 1226.328125 538.710938 1229.140625 534.460938 C 1231.941406 530.21875 1230.769531 524.5 1226.519531 521.691406 L 1139.078125 463.980469 L 1212.578125 391.820312 C 1216.210938 388.25 1216.269531 382.410156 1212.699219 378.78125 C 1209.140625 375.148438 1203.300781 375.101562 1199.671875 378.660156 L 1123.339844 453.601562 "/>
<path fill-rule="evenodd" fill="rgb(0%, 0%, 0%)" fill-opacity="1" d="M 1045.980469 243.890625 C 1057.808594 242.691406 1068.421875 251.578125 1069.648438 263.738281 C 1070.878906 275.898438 1062.28125 286.738281 1050.449219 287.941406 C 1038.621094 289.140625 1028.019531 280.25 1026.789062 268.089844 C 1025.550781 255.929688 1034.148438 245.089844 1045.980469 243.890625 "/>
<path fill-rule="evenodd" fill="rgb(0%, 0%, 0%)" fill-opacity="1" d="M 1117.058594 236.679688 C 1128.890625 235.480469 1139.488281 244.371094 1140.730469 256.53125 C 1141.960938 268.691406 1133.359375 279.53125 1121.53125 280.730469 C 1109.699219 281.929688 1099.089844 273.039062 1097.859375 260.878906 C 1096.628906 248.71875 1105.230469 237.878906 1117.058594 236.679688 "/>
<path fill-rule="evenodd" fill="rgb(0%, 0%, 0%)" fill-opacity="1" d="M 1188.140625 229.46875 C 1199.96875 228.269531 1210.570312 237.160156 1211.800781 249.320312 C 1213.039062 261.480469 1204.429688 272.328125 1192.609375 273.53125 C 1180.78125 274.71875 1170.171875 265.828125 1168.941406 253.671875 C 1167.710938 241.511719 1176.308594 230.671875 1188.140625 229.46875 "/>
<path fill-rule="evenodd" fill="rgb(0%, 0%, 0%)" fill-opacity="1" d="M 1191.570312 1549.261719 C 1191.570312 1549.261719 1363.511719 1411.230469 1552.351562 1564.910156 C 1741.191406 1718.589844 1802.101562 1906.554688 1802.101562 1906.554688 C 1802.101562 1906.554688 1784.601562 1463.988281 1961.808594 1484.328125 C 2045.378906 1493.929688 2132.910156 1496.359375 2172.988281 1533.378906 C 2217.910156 1574.851562 2210.171875 1656.839844 2207.96875 1783.378906 C 2203.820312 2022.851562 2174.589844 2696.621094 1661.398438 2476.914062 C 1148.199219 2257.203125 1065.058594 1647.699219 1191.570312 1549.261719 "/>
<path fill-rule="evenodd" fill="rgb(0%, 0%, 0%)" fill-opacity="1" d="M 777.902344 1365.421875 C 777.902344 1365.421875 604.089844 1326.289062 523.625 1481.929688 C 443.160156 1637.570312 608.367188 1794.160156 608.367188 1794.160156 C 608.367188 1794.160156 882.609375 1951.550781 887.699219 2512.949219 C 887.699219 2512.949219 1467.671875 2558.886719 1594.839844 2502.050781 C 1594.839844 2502.050781 1641.539062 1842.3125 1282.960938 1639.621094 C 1282.960938 1639.621094 1394.308594 1332.851562 777.902344 1365.421875 "/>
<path fill-rule="evenodd" fill="rgb(100%, 100%, 100%)" fill-opacity="1" d="M 1454.738281 1911.757812 C 1452.671875 1907.304688 1447.410156 1905.332031 1442.929688 1907.335938 C 1265.28125 1986.71875 1031.578125 2007.660156 1031.578125 2007.660156 C 1029.078125 2007.886719 1026.78125 2009.148438 1025.261719 2011.136719 C 1023.730469 2013.128906 1023.101562 2015.671875 1023.53125 2018.144531 L 1061.578125 2236.867188 C 1062.269531 2240.828125 1065.511719 2243.851562 1069.511719 2244.257812 C 1274.320312 2265.210938 1440.25 2201.984375 1520.28125 2162.878906 C 1523.839844 2161.140625 1525.839844 2157.277344 1525.199219 2153.367188 C 1512.269531 2074.164062 1490.578125 1989.144531 1454.738281 1911.757812 "/>
<path fill-rule="evenodd" fill="rgb(0%, 0%, 0%)" fill-opacity="1" d="M 1173.371094 1119.679688 C 1173.371094 1119.679688 1269.019531 1095.359375 1255.988281 970.089844 C 1242.949219 844.820312 1146.921875 812.539062 1076.371094 899.949219 C 1076.371094 899.949219 989.578125 796.441406 848.660156 853.980469 C 707.738281 911.519531 665.890625 1079.601562 665.890625 1079.601562 C 665.890625 1079.601562 617.679688 1064.589844 611.453125 1091.558594 C 605.230469 1118.539062 653.628906 1120.628906 653.628906 1120.628906 C 653.628906 1120.628906 572.195312 1241.808594 647.195312 1348.980469 C 722.199219 1456.160156 850.71875 1448.660156 936.648438 1384.238281 C 1022.578125 1319.820312 1173.371094 1119.679688 1173.371094 1119.679688 "/>
<path fill-rule="evenodd" fill="rgb(100%, 100%, 100%)" fill-opacity="1" d="M 832.183594 1542.910156 C 845.570312 1497.820312 858.167969 1425.449219 836.75 1346.808594 C 836.75 1346.808594 1019.121094 1406.679688 1079.808594 1388.53125 C 1079.808594 1388.53125 1058.699219 1516.640625 1127.769531 1604.078125 C 1127.769531 1604.078125 938.867188 1645.539062 832.183594 1542.910156 "/>
<path fill-rule="evenodd" fill="rgb(0%, 0%, 0%)" fill-opacity="1" d="M 1129.980469 1614.21875 C 1133.058594 1613.550781 1135.710938 1611.511719 1137.109375 1608.609375 C 1137.238281 1608.339844 1137.359375 1608.070312 1137.460938 1607.800781 C 1138.769531 1604.398438 1138.199219 1600.539062 1135.921875 1597.640625 C 1069.46875 1513.53125 1090.058594 1390.21875 1090.058594 1390.21875 C 1090.640625 1386.691406 1089.359375 1383.101562 1086.679688 1380.738281 C 1083.988281 1378.371094 1080.269531 1377.558594 1076.839844 1378.578125 C 1059.671875 1383.71875 1032.191406 1381.859375 1002.109375 1377.261719 C 928.4375 1366 839.988281 1336.949219 839.988281 1336.949219 C 836.359375 1335.761719 832.367188 1336.648438 829.601562 1339.289062 C 826.828125 1341.921875 825.730469 1345.859375 826.734375 1349.539062 C 847.527344 1425.898438 835.226562 1496.171875 822.230469 1539.949219 C 821.125 1543.671875 822.1875 1547.699219 824.984375 1550.390625 C 869.34375 1593.058594 927.285156 1611.980469 980.957031 1619.070312 C 1060.308594 1629.550781 1129.988281 1614.21875 1129.988281 1614.21875 Z M 1127.78125 1614.460938 L 1127.769531 1614.460938 Z M 1109.640625 1596.730469 C 1085.539062 1600.378906 1036.890625 1605.511719 983.675781 1598.480469 C 935.894531 1592.171875 884.289062 1576.089844 843.925781 1539.660156 C 855.941406 1496.648438 866.125 1432.558594 851.160156 1362.210938 C 881.128906 1371.339844 944.074219 1389.398438 998.976562 1397.789062 C 1025.011719 1401.769531 1049.308594 1403.441406 1067.898438 1401.359375 C 1064.851562 1435.96875 1062.550781 1525.789062 1109.640625 1596.730469 "/>
<path fill-rule="evenodd" fill="rgb(100%, 100%, 100%)" fill-opacity="1" d="M 1156.578125 1020.078125 C 1156.578125 1020.078125 1297.488281 1197.410156 1251.421875 1342.460938 C 1205.339844 1487.511719 945.84375 1441.578125 839.253906 1368.480469 C 839.253906 1368.480469 760.113281 1393.421875 760.367188 1318.539062 C 760.617188 1243.671875 837.316406 1278.449219 837.316406 1278.449219 C 837.316406 1278.449219 952.492188 1481.5 913.636719 1117.011719 C 913.636719 1117.011719 955.652344 1131.199219 971.5625 1058.511719 C 987.46875 985.808594 1082.121094 974.160156 1156.578125 1020.078125 "/>
<path fill-rule="evenodd" fill="rgb(0%, 0%, 0%)" fill-opacity="1" d="M 856.511719 1460.160156 C 858.011719 1433.199219 858.886719 1404.148438 855.800781 1384.828125 C 854.152344 1374.519531 851.132812 1366.589844 847.273438 1361.898438 C 844.585938 1358.621094 840.175781 1357.308594 836.132812 1358.578125 C 836.132812 1358.578125 823.746094 1362.449219 809.402344 1362.058594 C 800.734375 1361.820312 791.191406 1360.109375 783.738281 1354.210938 C 775.71875 1347.859375 770.6875 1336.71875 770.75 1318.578125 C 770.808594 1300.910156 775.324219 1290.640625 782.953125 1285.441406 C 789.972656 1280.640625 798.921875 1280.261719 807.042969 1281.070312 C 816.902344 1282.058594 825.800781 1285.058594 830.175781 1286.738281 C 835.949219 1296.210938 854.078125 1324.460938 872.351562 1337.300781 C 885.578125 1346.601562 899.039062 1348.398438 910.128906 1339.328125 C 917.90625 1332.96875 925.308594 1319.199219 928.992188 1293.5 C 933.53125 1261.851562 933.441406 1209.929688 925.253906 1128.398438 C 929.84375 1128.078125 935.191406 1127.011719 940.839844 1124.511719 C 955.085938 1118.191406 972.632812 1102.171875 981.703125 1060.71875 C 988.691406 1028.789062 1013.230469 1010.53125 1043.941406 1005.03125 C 1076.199219 999.261719 1115.058594 1007.160156 1149.550781 1027.960938 C 1157.03125 1037.679688 1200.808594 1096.238281 1228.210938 1169.941406 C 1247.851562 1222.769531 1259.25 1283.519531 1241.519531 1339.320312 C 1227.539062 1383.320312 1192.011719 1407.949219 1147.511719 1419.28125 C 1100.769531 1431.179688 1044.28125 1428.589844 990.617188 1417.421875 C 985.007812 1416.25 979.503906 1419.851562 978.335938 1425.460938 C 977.167969 1431.070312 980.773438 1436.578125 986.382812 1437.738281 C 1043.25 1449.578125 1103.109375 1452.019531 1152.628906 1439.398438 C 1204.398438 1426.21875 1245.050781 1396.789062 1261.308594 1345.601562 C 1280.449219 1285.371094 1268.871094 1219.738281 1247.671875 1162.710938 C 1216.441406 1078.699219 1164.710938 1013.628906 1164.710938 1013.628906 C 1163.960938 1012.679688 1163.058594 1011.878906 1162.03125 1011.25 C 1114.320312 981.820312 1058.78125 975.019531 1018.371094 990.671875 C 989.921875 1001.679688 968.59375 1023.5 961.417969 1056.289062 C 955.839844 1081.789062 947.167969 1095.398438 938.082031 1102.191406 C 927.324219 1110.230469 916.957031 1107.171875 916.957031 1107.171875 C 913.605469 1106.039062 909.902344 1106.691406 907.140625 1108.910156 C 904.378906 1111.121094 902.9375 1114.589844 903.3125 1118.109375 C 912.5 1204.300781 913.066406 1258.28125 908.441406 1290.550781 C 905.863281 1308.519531 902.425781 1318.808594 896.988281 1323.25 C 894.40625 1325.359375 891.410156 1324.351562 888.34375 1322.789062 C 884.453125 1320.808594 880.554688 1317.640625 876.742188 1313.96875 C 860.40625 1298.210938 846.347656 1273.320312 846.347656 1273.320312 C 845.265625 1271.410156 843.601562 1269.898438 841.605469 1268.988281 C 841.605469 1268.988281 826.570312 1262.160156 809.105469 1260.410156 C 796.273438 1259.128906 782.335938 1260.710938 771.242188 1268.289062 C 759.464844 1276.328125 750.074219 1291.230469 749.984375 1318.511719 C 749.894531 1345.300781 759 1361.109375 770.851562 1370.488281 C 781.941406 1379.269531 795.933594 1382.460938 808.832031 1382.820312 C 818.59375 1383.078125 827.628906 1381.761719 833.855469 1380.488281 C 835.070312 1384.539062 835.703125 1389.890625 836.261719 1396 C 837.886719 1413.75 836.996094 1437.109375 835.78125 1459 C 835.460938 1464.71875 839.847656 1469.628906 845.570312 1469.949219 C 851.292969 1470.261719 856.195312 1465.878906 856.511719 1460.160156 "/>
<path fill-rule="evenodd" fill="rgb(0%, 0%, 0%)" fill-opacity="1" d="M 1119.199219 1344.480469 C 1119.199219 1344.480469 1160.800781 1385.339844 1206.558594 1348.21875 C 1211.011719 1344.609375 1211.691406 1338.058594 1208.078125 1333.609375 C 1204.46875 1329.160156 1197.929688 1328.480469 1193.480469 1332.089844 C 1162.191406 1357.480469 1133.738281 1329.648438 1133.738281 1329.648438 C 1129.648438 1325.640625 1123.070312 1325.710938 1119.058594 1329.800781 C 1115.050781 1333.890625 1115.109375 1340.46875 1119.199219 1344.480469 "/>
<path fill-rule="evenodd" fill="rgb(100%, 100%, 100%)" fill-opacity="1" d="M 1779.300781 2539.9375 C 1779.199219 2543.738281 1780.738281 2547.398438 1783.519531 2549.984375 C 1786.308594 2552.570312 1790.070312 2553.835938 1793.851562 2553.453125 C 1857.101562 2547.105469 2111.789062 2521.292969 2170.53125 2515.34375 C 2177.558594 2514.628906 2182.800781 2508.535156 2182.460938 2501.476562 C 2180.410156 2471.964844 2166.808594 2399.050781 2082.570312 2373.570312 C 1979.621094 2342.425781 1783.441406 2402.917969 1779.300781 2539.9375 "/>
<path fill-rule="evenodd" fill="rgb(0%, 0%, 0%)" fill-opacity="1" d="M 1771.269531 2517.226562 C 1769.039062 2528.960938 1772.46875 2541.0625 1780.539062 2549.875 C 1788.621094 2558.703125 1800.390625 2563.191406 1812.300781 2561.984375 C 1889.320312 2554.273438 2085.421875 2534.402344 2157.011719 2527.148438 C 2167.5 2526.085938 2177.070312 2520.714844 2183.441406 2512.316406 C 2189.808594 2503.921875 2192.398438 2493.253906 2190.601562 2482.871094 C 2190.601562 2482.871094 2190.601562 2482.867188 2190.601562 2482.867188 C 2184.160156 2445.839844 2161.761719 2386.679688 2085.578125 2363.632812 C 2024.78125 2345.242188 1932.628906 2357.332031 1863.699219 2397.601562 C 1816.761719 2425.023438 1780.691406 2465.363281 1771.269531 2517.226562 Z M 1791.671875 2521.078125 C 1791.679688 2521.042969 1791.679688 2521.007812 1791.691406 2520.976562 C 1800.019531 2475.042969 1832.609375 2439.816406 1874.171875 2415.53125 C 1938.011719 2378.238281 2023.269531 2366.476562 2079.570312 2383.507812 C 2145.300781 2403.394531 2164.578125 2454.476562 2170.140625 2486.425781 C 2170.960938 2491.128906 2169.78125 2495.960938 2166.890625 2499.765625 C 2164.011719 2503.570312 2159.671875 2506.007812 2154.921875 2506.488281 C 2083.328125 2513.742188 1887.238281 2533.613281 1810.21875 2541.324219 C 1810.210938 2541.324219 1810.210938 2541.324219 1810.210938 2541.324219 C 1804.828125 2541.871094 1799.511719 2539.84375 1795.859375 2535.855469 C 1792.199219 2531.867188 1790.648438 2526.386719 1791.671875 2521.078125 "/>
<path fill-rule="evenodd" fill="rgb(0%, 0%, 0%)" fill-opacity="1" d="M 1985.910156 2369.179688 C 1985.910156 2369.179688 2033.53125 2500.433594 2172.929688 2466.433594 C 2178.5 2465.078125 2181.921875 2459.453125 2180.558594 2453.886719 C 2179.199219 2448.320312 2173.578125 2444.902344 2168.011719 2446.261719 C 2046.941406 2475.789062 2005.421875 2362.078125 2005.421875 2362.078125 C 2003.460938 2356.691406 1997.5 2353.910156 1992.109375 2355.871094 C 1986.730469 2357.832031 1983.949219 2363.792969 1985.910156 2369.179688 "/>
<path fill-rule="evenodd" fill="rgb(100%, 100%, 100%)" fill-opacity="1" d="M 1629.480469 2341.15625 C 1629.480469 2341.15625 1720.160156 2311.390625 1768.78125 2237.117188 C 1768.78125 2237.117188 1802.621094 2199.296875 1827.429688 2231.546875 C 1852.238281 2263.800781 1789.550781 2325.632812 1789.550781 2325.632812 C 1789.550781 2325.632812 1948.128906 2211.195312 2079.070312 2299.996094 C 2210.011719 2388.800781 2165.410156 2431.371094 2133.941406 2416.203125 C 2102.46875 2401.03125 1993.570312 2334.640625 1899.78125 2419.851562 C 1806 2505.066406 1783.011719 2546.453125 1645.699219 2527.574219 C 1645.699219 2527.574219 1629.96875 2381.613281 1629.480469 2341.15625 "/>
<path fill-rule="evenodd" fill="rgb(0%, 0%, 0%)" fill-opacity="1" d="M 1626.238281 2331.289062 C 1621.929688 2332.703125 1619.039062 2336.75 1619.089844 2341.28125 C 1619.589844 2381.953125 1635.371094 2528.6875 1635.371094 2528.6875 C 1635.878906 2533.425781 1639.558594 2537.210938 1644.28125 2537.859375 C 1701.410156 2545.714844 1739.511719 2543.253906 1770.910156 2532.140625 C 1817.289062 2515.730469 1849.121094 2479.910156 1906.761719 2427.535156 C 1995.941406 2346.511719 2099.511719 2411.128906 2129.429688 2425.554688 C 2147.75 2434.386719 2168.699219 2428.300781 2175.558594 2411.316406 C 2179.210938 2402.292969 2179.160156 2389.1875 2170.191406 2372.480469 C 2159.289062 2352.179688 2134.101562 2324.773438 2084.898438 2291.40625 C 2029.960938 2254.144531 1970.410156 2250.816406 1918.691406 2260.453125 C 1884.441406 2266.832031 1853.699219 2278.917969 1830.21875 2290.304688 C 1831.570312 2288.011719 1832.851562 2285.683594 1834.058594 2283.332031 C 1844.5 2262.957031 1847.910156 2241.132812 1835.660156 2225.21875 C 1829.128906 2216.726562 1822 2212.101562 1814.96875 2209.851562 C 1804.328125 2206.449219 1793.601562 2208.515625 1784.390625 2212.839844 C 1770.910156 2219.164062 1761.039062 2230.195312 1761.039062 2230.195312 C 1760.691406 2230.582031 1760.378906 2230.996094 1760.089844 2231.429688 C 1713.390625 2302.769531 1626.238281 2331.289062 1626.238281 2331.289062 Z M 1640.058594 2348.3125 C 1663.089844 2339.3125 1734.878906 2307.265625 1776.980469 2243.539062 C 1778.699219 2241.742188 1785.019531 2235.476562 1793.210938 2231.636719 C 1797.878906 2229.449219 1803.25 2227.90625 1808.640625 2229.632812 C 1812.300781 2230.800781 1815.808594 2233.464844 1819.199219 2237.878906 C 1822.5 2242.160156 1823.25 2247.28125 1822.691406 2252.648438 C 1821.980469 2259.554688 1819.191406 2266.808594 1815.578125 2273.863281 C 1803.589844 2297.25 1782.261719 2318.242188 1782.261719 2318.242188 C 1778.398438 2322.050781 1778.121094 2328.191406 1781.621094 2332.335938 C 1785.128906 2336.480469 1791.230469 2337.226562 1795.628906 2334.050781 C 1795.628906 2334.050781 1850.910156 2294.203125 1922.5 2280.867188 C 1969.378906 2272.132812 2023.429688 2274.808594 2073.238281 2308.589844 C 2111.089844 2334.257812 2133.839844 2355.785156 2146.148438 2373.136719 C 2153.191406 2383.058594 2156.628906 2391.199219 2157.050781 2397.761719 C 2157.308594 2401.695312 2156.328125 2404.734375 2154.109375 2406.566406 C 2150.191406 2409.796875 2143.960938 2409.507812 2138.449219 2406.851562 C 2105.429688 2390.933594 1991.199219 2322.761719 1892.800781 2412.167969 C 1837.898438 2462.054688 1808.160156 2496.933594 1763.980469 2512.566406 C 1736.5 2522.289062 1703.449219 2524.335938 1655.148438 2518.339844 C 1652.058594 2489.148438 1641.679688 2389.101562 1640.058594 2348.3125 "/>
<path fill-rule="evenodd" fill="rgb(0%, 0%, 0%)" fill-opacity="1" d="M 1486.558594 2341.328125 C 1486.558594 2341.328125 1617.789062 2317.066406 1644.058594 2325.695312 C 1670.328125 2334.324219 1687.75 2491.402344 1676.679688 2532.105469 C 1665.601562 2572.8125 1514.121094 2571.257812 1485.359375 2563.125 L 1486.558594 2341.328125 "/>
<path fill-rule="evenodd" fill="rgb(0%, 0%, 0%)" fill-opacity="1" d="M 871.203125 1788.808594 C 871.203125 1788.808594 651.410156 1656.75 544.65625 1864.453125 C 437.902344 2072.15625 550.527344 2546.328125 758.261719 2622.027344 C 854.210938 2656.988281 1523.609375 2706.804688 1550.648438 2562.488281 C 1550.648438 2562.488281 1584.171875 2317.628906 1472.261719 2315.558594 C 1360.339844 2313.488281 1048.679688 2306.699219 939.203125 2283.863281 C 939.203125 2283.863281 865.691406 2273.472656 877.109375 2128.945312 C 888.527344 1984.417969 871.203125 1788.808594 871.203125 1788.808594 "/>
<path fill-rule="evenodd" fill="rgb(100%, 100%, 100%)" fill-opacity="1" d="M 873.953125 2130.621094 C 873.949219 2130.632812 867.421875 2181.0625 880.171875 2226.222656 C 889.3125 2258.617188 908.25 2287.988281 944.109375 2297.585938 C 995.769531 2311.417969 1188.328125 2312.253906 1334.898438 2317.753906 C 1340.96875 2317.980469 1346.078125 2313.238281 1346.308594 2307.171875 C 1346.539062 2301.105469 1341.789062 2295.996094 1335.730469 2295.769531 C 1190.988281 2290.339844 1000.808594 2289.992188 949.796875 2276.335938 C 922.058594 2268.910156 908.414062 2245.304688 901.34375 2220.25 C 889.769531 2179.246094 895.769531 2133.464844 895.769531 2133.464844 C 896.550781 2127.441406 892.300781 2121.917969 886.28125 2121.136719 C 880.261719 2120.351562 874.734375 2124.601562 873.953125 2130.621094 Z M 873.953125 2130.621094 L 873.953125 2130.621094 "/>
<path fill-rule="evenodd" fill="rgb(100%, 100%, 100%)" fill-opacity="1" d="M 700.921875 1534.128906 C 700.921875 1534.128906 814.929688 1788.988281 1115.089844 1735.019531 C 1120.738281 1734.011719 1124.488281 1728.601562 1123.480469 1722.960938 C 1122.460938 1717.320312 1117.058594 1713.570312 1111.421875 1714.578125 C 827.921875 1765.550781 719.867188 1525.628906 719.867188 1525.628906 C 717.519531 1520.398438 711.371094 1518.058594 706.140625 1520.410156 C 700.914062 1522.75 698.574219 1528.898438 700.921875 1534.128906 "/>
<path fill-rule="evenodd" fill="rgb(100%, 100%, 100%)" fill-opacity="1" d="M 1234.039062 1701.839844 C 1234.039062 1701.839844 1302.601562 1679.660156 1301.140625 1582.5 C 1301.050781 1576.769531 1296.328125 1572.191406 1290.601562 1572.28125 C 1284.871094 1572.371094 1280.289062 1577.089844 1280.378906 1582.820312 C 1281.578125 1662.738281 1227.371094 1682.179688 1227.371094 1682.179688 C 1221.941406 1684.019531 1219.03125 1689.921875 1220.871094 1695.339844 C 1222.710938 1700.769531 1228.609375 1703.679688 1234.039062 1701.839844 "/>
<path fill-rule="evenodd" fill="rgb(100%, 100%, 100%)" fill-opacity="1" d="M 1085.628906 1667.191406 C 1085.628906 1667.191406 1045.429688 1672.171875 1028.960938 1703.441406 C 1021.980469 1716.710938 1018.898438 1734.800781 1025.628906 1759.449219 C 1036.980469 1801.03125 1057.46875 1858.753906 1054.230469 1898.351562 C 1053.339844 1909.253906 1050.679688 1918.621094 1044.511719 1925.128906 C 1038.511719 1931.46875 1029.289062 1934.660156 1016.238281 1934.671875 C 1010.511719 1934.671875 1005.859375 1939.328125 1005.871094 1945.058594 C 1005.871094 1950.789062 1010.53125 1955.4375 1016.261719 1955.433594 C 1036.46875 1955.421875 1050.300781 1949.222656 1059.589844 1939.40625 C 1068.730469 1929.757812 1073.601562 1916.210938 1074.929688 1900.046875 C 1078.328125 1858.453125 1057.578125 1797.660156 1045.660156 1753.988281 C 1040.761719 1736.011719 1042.238281 1722.789062 1047.339844 1713.109375 C 1059.058594 1690.839844 1088.019531 1687.808594 1088.019531 1687.808594 C 1093.710938 1687.160156 1097.789062 1682 1097.128906 1676.308594 C 1096.480469 1670.609375 1091.320312 1666.53125 1085.628906 1667.191406 "/>
<path fill-rule="evenodd" fill="rgb(100%, 100%, 100%)" fill-opacity="1" d="M 1216.078125 1647.589844 C 1216.078125 1647.589844 1242.609375 1636.488281 1266.199219 1651.390625 C 1283.199219 1662.128906 1297.769531 1685.78125 1302.519531 1733.269531 C 1316.628906 1874.59375 1372.628906 1889.53125 1399.03125 1887.640625 C 1404.75 1887.230469 1409.058594 1882.257812 1408.648438 1876.542969 C 1408.238281 1870.828125 1403.261719 1866.519531 1397.550781 1866.929688 C 1385.261719 1867.808594 1366.429688 1862.457031 1350.511719 1835.035156 C 1338.351562 1814.09375 1328.191406 1781.421875 1323.179688 1731.199219 C 1317.480469 1674.140625 1297.71875 1646.738281 1277.289062 1633.828125 C 1244.71875 1613.269531 1208.109375 1628.410156 1208.109375 1628.410156 C 1202.820312 1630.609375 1200.308594 1636.699219 1202.511719 1641.988281 C 1204.710938 1647.28125 1210.789062 1649.789062 1216.078125 1647.589844 "/>
<path fill-rule="evenodd" fill="rgb(0%, 0%, 0%)" fill-opacity="1" d="M 1916.570312 592.789062 L 1928.808594 644.449219 C 1929.640625 647.960938 1932.230469 650.78125 1935.640625 651.921875 C 1939.058594 653.050781 1942.820312 652.328125 1945.578125 650.019531 L 1993.5 609.871094 C 1997.878906 610.109375 2002.289062 610.21875 2006.75 610.21875 C 2113 610.21875 2198.058594 542.941406 2198.058594 461.988281 C 2198.058594 381.039062 2113 313.75 2006.75 313.75 C 1900.5 313.75 1815.429688 381.039062 1815.429688 461.988281 C 1815.429688 518.199219 1855.960938 567.691406 1916.570312 592.789062 "/>
<path fill-rule="evenodd" fill="rgb(100%, 100%, 100%)" fill-opacity="1" d="M 2016.660156 410.519531 L 1976.878906 507.320312 C 1974.699219 512.621094 1977.230469 518.691406 1982.53125 520.871094 C 1987.828125 523.050781 1993.910156 520.511719 1996.078125 515.210938 L 2035.859375 418.410156 C 2038.039062 413.109375 2035.511719 407.039062 2030.210938 404.859375 C 2024.910156 402.679688 2018.839844 405.21875 2016.660156 410.519531 Z M 1957.769531 426.210938 L 1923.378906 452.871094 C 1920.878906 454.800781 1919.398438 457.761719 1919.351562 460.910156 C 1919.308594 464.070312 1920.691406 467.070312 1923.128906 469.078125 L 1957.519531 497.449219 C 1961.941406 501.101562 1968.488281 500.46875 1972.140625 496.050781 C 1975.78125 491.628906 1975.148438 485.078125 1970.730469 481.429688 L 1946.359375 461.320312 L 1970.488281 442.621094 C 1975.019531 439.109375 1975.839844 432.578125 1972.328125 428.050781 C 1968.820312 423.519531 1962.289062 422.699219 1957.769531 426.210938 Z M 2043.320312 442.621094 L 2067.449219 461.320312 L 2043.078125 481.429688 C 2038.660156 485.078125 2038.03125 491.628906 2041.679688 496.050781 C 2045.320312 500.46875 2051.871094 501.101562 2056.289062 497.449219 L 2090.679688 469.078125 C 2093.121094 467.070312 2094.5 464.070312 2094.460938 460.910156 C 2094.410156 457.761719 2092.929688 454.800781 2090.441406 452.871094 L 2056.039062 426.210938 C 2051.519531 422.699219 2044.988281 423.519531 2041.480469 428.050781 C 2037.96875 432.578125 2038.789062 439.109375 2043.320312 442.621094 "/>
<path fill-rule="evenodd" fill="rgb(100%, 100%, 100%)" fill-opacity="1" d="M 1788.449219 1946.214844 C 1780.109375 1982.75 1778.578125 2021.902344 1788.089844 2095.550781 C 1788.871094 2101.570312 1794.390625 2105.828125 1800.410156 2105.050781 C 1806.429688 2104.273438 1810.691406 2098.753906 1809.910156 2092.734375 C 1800.890625 2022.890625 1801.988281 1985.761719 1809.898438 1951.109375 C 1811.25 1945.191406 1807.539062 1939.289062 1801.621094 1937.9375 C 1795.699219 1936.585938 1789.800781 1940.296875 1788.449219 1946.214844 "/>
</svg>
