<svg width="409.668" height="48.832" viewBox="0 0 409.668 48.832" xmlns="http://www.w3.org/2000/svg">
    <g id="svgGroup" stroke-linecap="round" fill-rule="evenodd" font-size="9pt" stroke="#ffffff" stroke-width="0.25mm"
        fill="#ffffff" style="stroke:#ffffff;stroke-width:0.25mm;fill:#ffffff">
        <path
            d="M 52.539 0.002 L 70.85 0.002 A 0.496 0.496 0 0 1 70.965 0.014 Q 71.054 0.035 71.114 0.092 A 0.309 0.309 0 0 1 71.143 0.124 A 0.448 0.448 0 0 1 71.22 0.265 A 0.409 0.409 0 0 1 71.24 0.392 L 71.24 48.439 A 0.623 0.623 0 0 1 71.231 48.549 Q 71.21 48.664 71.143 48.732 A 0.306 0.306 0 0 1 71.021 48.805 Q 70.972 48.822 70.914 48.827 A 0.687 0.687 0 0 1 70.85 48.83 L 59.766 48.83 A 0.417 0.417 0 0 1 59.51 48.743 A 0.523 0.523 0 0 1 59.497 48.732 Q 59.376 48.635 59.375 48.441 A 0.624 0.624 0 0 1 59.375 48.439 L 59.375 10.597 L 55.615 10.597 A 2.454 2.454 0 0 0 53.6 11.576 A 3.986 3.986 0 0 0 53.125 12.355 L 40.381 48.586 Q 40.303 48.781 40.1 48.82 A 0.579 0.579 0 0 1 39.99 48.83 L 31.25 48.83 A 0.414 0.414 0 0 1 30.923 48.675 A 0.657 0.657 0 0 1 30.859 48.586 L 18.115 12.355 A 3.644 3.644 0 0 0 17.586 11.486 A 2.436 2.436 0 0 0 15.625 10.597 L 11.865 10.597 L 11.865 48.439 A 0.496 0.496 0 0 1 11.853 48.554 Q 11.832 48.643 11.775 48.703 A 0.309 0.309 0 0 1 11.743 48.732 A 0.448 0.448 0 0 1 11.602 48.81 A 0.409 0.409 0 0 1 11.475 48.83 L 0.391 48.83 A 0.417 0.417 0 0 1 0.135 48.743 A 0.523 0.523 0 0 1 0.122 48.732 Q 0.001 48.635 0 48.441 A 0.624 0.624 0 0 1 0 48.439 L 0 0.392 A 0.347 0.347 0 0 1 0.066 0.19 A 0.494 0.494 0 0 1 0.122 0.124 A 0.467 0.467 0 0 1 0.217 0.049 A 0.34 0.34 0 0 1 0.391 0.002 L 18.701 0.002 Q 19.189 0.002 19.727 0.051 Q 25.148 0.825 27.688 5.733 A 14.974 14.974 0 0 1 28.32 7.131 L 35.645 28.127 L 42.969 7.131 Q 45.33 1.01 51.355 0.074 A 13.196 13.196 0 0 1 51.514 0.051 Q 52.051 0.002 52.539 0.002 Z M 70.068 47.658 L 70.068 1.222 L 52.539 1.222 A 7.953 7.953 0 0 0 51.66 1.271 A 9.04 9.04 0 0 0 47.359 2.963 Q 45.744 4.176 44.687 6.203 A 13.234 13.234 0 0 0 44.092 7.521 L 36.768 28.517 L 35.645 31.74 L 34.521 28.517 L 27.197 7.521 A 11.426 11.426 0 0 0 25.435 4.416 A 8.698 8.698 0 0 0 19.629 1.271 A 9.837 9.837 0 0 0 18.981 1.227 A 8.333 8.333 0 0 0 18.701 1.222 L 1.172 1.222 L 1.172 47.658 L 10.693 47.658 L 10.693 10.597 L 10.693 9.377 L 11.865 9.377 L 15.625 9.377 A 3.53 3.53 0 0 1 18.538 10.787 A 5.686 5.686 0 0 1 19.238 11.965 L 31.787 47.658 L 39.453 47.658 L 52.002 11.965 A 5.59 5.59 0 0 1 52.762 10.714 A 3.521 3.521 0 0 1 55.615 9.377 L 59.375 9.377 L 60.547 9.377 L 60.547 10.597 L 60.547 47.658 L 70.068 47.658 Z"
            id="0" vector-effect="non-scaling-stroke" />
        <path
            d="M 143.066 0.002 L 154.15 0.002 A 0.347 0.347 0 0 1 154.352 0.068 A 0.494 0.494 0 0 1 154.419 0.124 A 0.467 0.467 0 0 1 154.493 0.219 A 0.34 0.34 0 0 1 154.541 0.392 L 154.541 48.439 A 0.347 0.347 0 0 1 154.475 48.641 A 0.494 0.494 0 0 1 154.419 48.708 A 0.467 0.467 0 0 1 154.324 48.782 A 0.34 0.34 0 0 1 154.15 48.83 L 143.066 48.83 A 0.496 0.496 0 0 1 142.951 48.817 Q 142.862 48.796 142.802 48.739 A 0.309 0.309 0 0 1 142.773 48.708 A 0.448 0.448 0 0 1 142.696 48.567 A 0.409 0.409 0 0 1 142.676 48.439 L 142.676 29.689 L 97.803 29.689 L 97.803 48.439 A 0.347 0.347 0 0 1 97.737 48.641 A 0.494 0.494 0 0 1 97.681 48.708 A 0.411 0.411 0 0 1 97.434 48.826 A 0.565 0.565 0 0 1 97.363 48.83 L 86.279 48.83 A 0.347 0.347 0 0 1 86.077 48.764 A 0.494 0.494 0 0 1 86.011 48.708 A 0.467 0.467 0 0 1 85.936 48.613 A 0.34 0.34 0 0 1 85.889 48.439 L 85.889 0.392 A 0.347 0.347 0 0 1 85.955 0.19 A 0.494 0.494 0 0 1 86.011 0.124 A 0.467 0.467 0 0 1 86.106 0.049 A 0.34 0.34 0 0 1 86.279 0.002 L 97.363 0.002 A 0.509 0.509 0 0 1 97.51 0.022 A 0.4 0.4 0 0 1 97.681 0.124 A 0.467 0.467 0 0 1 97.755 0.219 A 0.34 0.34 0 0 1 97.803 0.392 L 97.803 19.142 L 142.676 19.142 L 142.676 0.392 A 0.417 0.417 0 0 1 142.763 0.137 A 0.523 0.523 0 0 1 142.773 0.124 Q 142.871 0.002 143.064 0.002 A 0.624 0.624 0 0 1 143.066 0.002 Z M 153.32 47.658 L 153.32 1.174 L 143.848 1.174 L 143.848 19.142 L 143.848 20.314 L 142.676 20.314 L 97.803 20.314 L 96.582 20.314 L 96.582 19.142 L 96.582 1.174 L 87.109 1.174 L 87.109 47.658 L 96.582 47.658 L 96.582 29.689 L 96.582 28.517 L 97.803 28.517 L 142.676 28.517 L 143.848 28.517 L 143.848 29.689 L 143.848 47.658 L 153.32 47.658 Z"
            id="1" vector-effect="non-scaling-stroke" />
        <path
            d="M 222.949 0.002 L 242.725 0.002 A 0.347 0.347 0 0 1 242.927 0.068 A 0.494 0.494 0 0 1 242.993 0.124 A 0.467 0.467 0 0 1 243.068 0.219 A 0.34 0.34 0 0 1 243.115 0.392 L 243.115 48.439 A 0.347 0.347 0 0 1 243.049 48.641 A 0.494 0.494 0 0 1 242.993 48.708 A 0.467 0.467 0 0 1 242.898 48.782 A 0.34 0.34 0 0 1 242.725 48.83 L 231.641 48.83 A 0.347 0.347 0 0 1 231.439 48.764 A 0.494 0.494 0 0 1 231.372 48.708 A 0.467 0.467 0 0 1 231.298 48.613 A 0.34 0.34 0 0 1 231.25 48.439 L 231.25 10.549 L 224.902 10.549 A 2.684 2.684 0 0 0 223.053 11.279 A 3.476 3.476 0 0 0 222.998 11.33 L 185.4 48.732 Q 185.303 48.83 185.156 48.83 L 169.629 48.83 A 0.374 0.374 0 0 1 169.475 48.8 Q 169.35 48.744 169.287 48.586 A 0.572 0.572 0 0 1 169.258 48.49 Q 169.219 48.303 169.336 48.146 L 213.623 3.859 A 14.215 14.215 0 0 1 217.908 0.996 A 12.86 12.86 0 0 1 222.949 0.002 Z M 241.943 47.658 L 241.943 1.174 L 222.949 1.174 A 11.903 11.903 0 0 0 214.833 4.341 A 15.503 15.503 0 0 0 214.453 4.689 L 171.533 47.658 L 184.814 47.658 L 222.168 10.5 A 3.828 3.828 0 0 1 224.902 9.377 L 231.25 9.377 L 232.422 9.377 L 232.422 10.549 L 232.422 47.658 L 241.943 47.658 Z"
            id="2" vector-effect="non-scaling-stroke" />
        <path
            d="M 272.266 0.002 L 311.865 0.002 A 13.955 13.955 0 0 1 321.986 4.118 A 16.88 16.88 0 0 1 322.119 4.25 A 13.955 13.955 0 0 1 326.366 14.316 A 16.865 16.865 0 0 1 326.367 14.504 L 326.367 34.328 A 13.955 13.955 0 0 1 322.251 44.449 A 16.88 16.88 0 0 1 322.119 44.582 A 13.955 13.955 0 0 1 312.052 48.829 A 16.865 16.865 0 0 1 311.865 48.83 L 272.266 48.83 A 13.955 13.955 0 0 1 262.145 44.714 A 16.88 16.88 0 0 1 262.012 44.582 A 13.955 13.955 0 0 1 257.765 34.515 A 16.865 16.865 0 0 1 257.764 34.328 L 257.764 14.504 A 13.955 13.955 0 0 1 261.88 4.383 A 16.88 16.88 0 0 1 262.012 4.25 A 13.955 13.955 0 0 1 272.078 0.003 A 16.865 16.865 0 0 1 272.266 0.002 Z M 311.865 1.174 L 272.266 1.174 A 12.826 12.826 0 0 0 262.964 4.959 A 15.54 15.54 0 0 0 262.842 5.08 A 12.827 12.827 0 0 0 258.937 14.332 A 15.483 15.483 0 0 0 258.936 14.504 L 258.936 34.328 A 12.826 12.826 0 0 0 262.721 43.629 A 15.54 15.54 0 0 0 262.842 43.752 A 12.827 12.827 0 0 0 272.094 47.657 A 15.483 15.483 0 0 0 272.266 47.658 L 311.865 47.658 A 12.826 12.826 0 0 0 321.167 43.873 A 15.54 15.54 0 0 0 321.289 43.752 A 12.827 12.827 0 0 0 325.194 34.5 A 15.483 15.483 0 0 0 325.195 34.328 L 325.195 14.504 A 12.826 12.826 0 0 0 321.41 5.202 A 15.54 15.54 0 0 0 321.289 5.08 A 12.827 12.827 0 0 0 312.037 1.175 A 15.483 15.483 0 0 0 311.865 1.174 Z M 311.865 39.455 L 272.266 39.455 A 3.659 3.659 0 0 1 269.615 38.367 A 4.537 4.537 0 0 1 269.58 38.332 Q 268.457 37.209 268.457 35.646 L 268.457 13.185 A 3.659 3.659 0 0 1 269.545 10.535 A 4.537 4.537 0 0 1 269.58 10.5 Q 270.703 9.377 272.266 9.377 L 311.865 9.377 A 3.805 3.805 0 0 1 313.627 9.783 A 3.872 3.872 0 0 1 314.6 10.5 Q 315.723 11.623 315.723 13.185 L 315.723 35.646 A 3.659 3.659 0 0 1 314.634 38.297 A 4.537 4.537 0 0 1 314.6 38.332 Q 313.477 39.455 311.865 39.455 Z M 272.266 38.283 L 311.865 38.283 A 2.53 2.53 0 0 0 313.696 37.526 A 3.194 3.194 0 0 0 313.721 37.502 A 2.647 2.647 0 0 0 314.339 36.567 A 2.572 2.572 0 0 0 314.502 35.646 L 314.502 13.185 A 2.53 2.53 0 0 0 313.745 11.354 A 3.194 3.194 0 0 0 313.721 11.33 A 2.647 2.647 0 0 0 312.786 10.712 A 2.572 2.572 0 0 0 311.865 10.549 L 272.266 10.549 A 2.53 2.53 0 0 0 270.435 11.306 A 3.194 3.194 0 0 0 270.41 11.33 A 2.647 2.647 0 0 0 269.792 12.265 A 2.572 2.572 0 0 0 269.629 13.185 L 269.629 35.646 A 2.53 2.53 0 0 0 270.386 37.477 A 3.194 3.194 0 0 0 270.41 37.502 A 2.647 2.647 0 0 0 271.345 38.12 A 2.572 2.572 0 0 0 272.266 38.283 Z"
            id="3" vector-effect="non-scaling-stroke" />
        <path
            d="M 394.287 0.002 L 409.277 0.002 A 0.347 0.347 0 0 1 409.479 0.068 A 0.494 0.494 0 0 1 409.546 0.124 A 0.467 0.467 0 0 1 409.62 0.219 A 0.34 0.34 0 0 1 409.668 0.392 L 409.668 10.158 A 0.347 0.347 0 0 1 409.602 10.36 A 0.494 0.494 0 0 1 409.546 10.427 A 0.467 0.467 0 0 1 409.451 10.501 A 0.34 0.34 0 0 1 409.277 10.549 L 395.02 10.549 A 2.587 2.587 0 0 0 393.251 11.244 A 3.618 3.618 0 0 0 392.969 11.525 L 382.52 24.416 L 393.018 37.306 A 2.861 2.861 0 0 0 393.819 37.974 A 2.554 2.554 0 0 0 395.068 38.283 L 409.277 38.283 A 0.417 0.417 0 0 1 409.532 38.37 A 0.523 0.523 0 0 1 409.546 38.381 Q 409.667 38.478 409.668 38.672 A 0.624 0.624 0 0 1 409.668 38.674 L 409.668 48.439 A 0.347 0.347 0 0 1 409.602 48.641 A 0.494 0.494 0 0 1 409.546 48.708 A 0.467 0.467 0 0 1 409.451 48.782 A 0.34 0.34 0 0 1 409.277 48.83 L 394.287 48.83 A 12.959 12.959 0 0 1 384.871 44.837 A 17.901 17.901 0 0 1 384.033 43.947 L 375.342 33.254 L 366.65 43.947 A 15.318 15.318 0 0 1 362.885 47.109 A 12.648 12.648 0 0 1 356.396 48.83 L 341.406 48.83 A 0.347 0.347 0 0 1 341.204 48.764 A 0.494 0.494 0 0 1 341.138 48.708 A 0.467 0.467 0 0 1 341.063 48.613 A 0.34 0.34 0 0 1 341.016 48.439 L 341.016 38.674 A 0.496 0.496 0 0 1 341.028 38.559 Q 341.049 38.47 341.106 38.41 A 0.309 0.309 0 0 1 341.138 38.381 A 0.448 0.448 0 0 1 341.279 38.303 A 0.409 0.409 0 0 1 341.406 38.283 L 355.615 38.283 A 2.556 2.556 0 0 0 357.531 37.457 A 3.377 3.377 0 0 0 357.666 37.306 L 368.164 24.416 L 357.715 11.525 A 3.205 3.205 0 0 0 356.983 10.911 A 2.521 2.521 0 0 0 355.664 10.549 L 341.406 10.549 A 0.347 0.347 0 0 1 341.204 10.483 A 0.494 0.494 0 0 1 341.138 10.427 A 0.467 0.467 0 0 1 341.063 10.332 A 0.34 0.34 0 0 1 341.016 10.158 L 341.016 0.392 A 0.347 0.347 0 0 1 341.081 0.19 A 0.494 0.494 0 0 1 341.138 0.124 A 0.467 0.467 0 0 1 341.233 0.049 A 0.34 0.34 0 0 1 341.406 0.002 L 356.396 0.002 A 12.959 12.959 0 0 1 365.813 3.995 A 17.901 17.901 0 0 1 366.65 4.885 L 375.342 15.578 L 384.033 4.885 A 15.318 15.318 0 0 1 387.798 1.723 A 12.648 12.648 0 0 1 394.287 0.002 Z M 408.447 9.377 L 408.447 1.174 L 394.287 1.174 Q 388.818 1.174 384.961 5.617 L 376.27 16.31 L 375.342 17.433 L 374.414 16.31 L 365.723 5.617 A 13.571 13.571 0 0 0 362.217 2.679 A 11.534 11.534 0 0 0 356.396 1.174 L 342.236 1.174 L 342.236 9.377 L 355.664 9.377 A 3.662 3.662 0 0 1 358.341 10.52 A 5.086 5.086 0 0 1 358.594 10.793 L 369.092 23.635 L 369.678 24.416 L 369.092 25.148 L 358.594 38.039 A 4.262 4.262 0 0 1 357.468 38.982 A 3.698 3.698 0 0 1 355.615 39.455 L 342.236 39.455 L 342.236 47.658 L 356.396 47.658 Q 361.865 47.658 365.723 43.215 L 374.414 32.521 L 375.342 31.349 L 376.27 32.521 L 384.961 43.215 A 13.571 13.571 0 0 0 388.467 46.153 A 11.534 11.534 0 0 0 394.287 47.658 L 408.447 47.658 L 408.447 39.455 L 395.068 39.455 A 3.739 3.739 0 0 1 392.284 38.251 A 5.023 5.023 0 0 1 392.09 38.039 L 381.592 25.148 L 381.006 24.416 L 381.592 23.635 L 392.09 10.793 A 4.359 4.359 0 0 1 393.151 9.883 A 3.576 3.576 0 0 1 395.02 9.377 L 408.447 9.377 Z"
            id="4" vector-effect="non-scaling-stroke" />
    </g>
</svg>